<svg width="22" height="23" viewBox="0 0 22 23" fill="none" xmlns="http://www.w3.org/2000/svg">
<path d="M10.8379 22.496C8.82233 22.496 6.80674 22.6167 4.9097 22.496C2.18272 22.2546 1.11563 21.2892 0.641374 18.393C0.0485515 15.014 -0.18857 11.7557 0.167123 8.37676C0.285688 7.16998 0.404245 5.84252 0.641374 4.63575C0.997068 2.10152 2.06415 1.01543 4.55401 0.412039C5.62109 0.170684 6.56961 0.0499921 7.63669 0.17067C9.88942 0.291347 12.1421 0.29134 14.3949 0.0499847C15.4619 -0.0706927 16.4105 0.0499921 17.4775 0.17067C19.4931 0.412024 20.9159 1.49814 21.153 3.54966C21.8644 8.61811 22.4573 13.6865 21.5087 18.755C21.0345 21.1685 19.9674 22.134 17.5961 22.6167C15.4619 22.7374 13.2092 22.6167 10.8379 22.496ZM11.3122 6.32523C8.5852 6.20455 6.21391 8.25608 5.97678 10.7903C5.73965 13.9279 7.63669 15.9794 10.8379 16.2208C13.3278 16.3415 15.6991 14.1693 15.9362 11.3937C16.1733 8.85947 14.0392 6.4459 11.3122 6.32523ZM18.6632 4.39438C18.5446 3.67032 18.1889 3.18761 17.359 3.18761C16.4105 3.18761 15.9362 3.79101 15.9362 4.63575C15.9362 5.48049 16.4105 6.08386 17.359 6.08386C18.3075 5.96318 18.6632 5.3598 18.6632 4.39438Z" fill="#FFD447"/>
</svg>
