<svg width="24" height="24" viewBox="0 0 24 24" fill="none" xmlns="http://www.w3.org/2000/svg">
<path d="M11.8512 23.9271C6.17514 24.7246 -0.09841 18.6432 0.0011703 13.459C0.100751 4.88511 5.97599 0 11.4529 0C18.5231 0 23.9004 4.78541 24 11.8638C24 17.2474 18.7223 24.8243 11.8512 23.9271ZM10.0588 6.77933C8.66463 6.97872 7.07135 6.97873 5.57764 7.47721C4.781 7.7763 3.58606 7.97567 3.8848 9.07233C4.18354 10.2687 5.17934 9.57083 5.8764 9.47114C9.9592 8.77326 13.9424 9.27174 17.7265 10.8669C18.4235 11.166 19.3197 12.1629 19.9172 11.0662C20.4151 10.169 19.3197 9.57081 18.6227 9.17203C16.0336 7.47719 13.1457 6.87902 10.0588 6.77933ZM10.0588 10.7672C8.06715 10.6675 6.57345 10.8669 5.07974 11.2657C4.48226 11.465 4.08394 11.7641 4.18353 12.462C4.28311 13.0602 4.78101 13.1599 5.17933 13.1599C5.87639 13.1599 6.57346 13.1599 7.27052 13.0602C10.2579 12.7611 13.1458 13.0602 15.8344 14.3562C16.6311 14.755 17.6269 15.6523 18.2244 14.3562C18.7223 13.2596 17.6269 12.7611 16.8302 12.2626C16.6311 12.1629 16.4319 11.9635 16.2327 11.9635C14.042 11.5648 11.9508 10.5678 10.0588 10.7672ZM7.86801 16.9483C9.26213 16.8487 10.7558 16.8486 12.1499 17.3471C12.9466 17.6462 13.8428 17.8456 14.6395 18.1447C15.1374 18.2444 15.6353 18.2444 15.934 17.7459C16.2328 17.1477 15.6353 16.9483 15.2369 16.7489C13.3449 15.6523 11.2537 15.1538 9.06295 15.0541C7.86799 14.9544 6.47388 15.0541 5.27891 15.5526C4.88059 15.752 4.58185 15.9514 4.68143 16.4499C4.78101 16.8487 5.17934 16.8487 5.3785 16.9483C6.27472 16.9483 7.07137 16.9483 7.86801 16.9483Z" fill="#FFD447"/>
</svg>
